<svg width="500" height="500" viewBox="0 0 500 500" fill="none" xmlns="http://www.w3.org/2000/svg">
    <rect width="500" height="500" fill="white" />
    <path
        d="M118.263 213.394H189.974C190.994 213.394 191.933 213.95 192.423 214.845L231.312 285.919C231.802 286.814 232.741 287.371 233.761 287.371H302.669C304.812 287.371 306.156 289.686 305.093 291.548L269.201 354.358C268.704 355.228 267.779 355.765 266.777 355.765H196.044C195.04 355.765 194.113 355.226 193.617 354.353L115.836 217.565C114.778 215.704 116.122 213.394 118.263 213.394Z"
        fill="black" />
    <path
        d="M380.846 287.371L309.135 287.371C308.114 287.371 307.175 286.814 306.686 285.919L267.796 214.846C267.306 213.951 266.367 213.394 265.347 213.394L196.439 213.394C194.296 213.394 192.952 211.078 194.016 209.217L229.907 146.407C230.404 145.537 231.329 145 232.331 145L303.064 145C304.068 145 304.995 145.539 305.491 146.412L383.272 283.2C384.331 285.061 382.986 287.371 380.846 287.371Z"
        fill="black" />
</svg>
    