<svg width="88" height="23" viewBox="0 0 88 23" fill="none" xmlns="http://www.w3.org/2000/svg">
    <path
        d="M0.450212 7.41664H7.1781C7.27381 7.41664 7.36191 7.46886 7.40786 7.55283L11.0564 14.2209C11.1024 14.3049 11.1905 14.3571 11.2862 14.3571H17.7511C17.9522 14.3571 18.0783 14.5744 17.9785 14.749L14.6111 20.6418C14.5645 20.7234 14.4777 20.7738 14.3837 20.7738H7.7476C7.65342 20.7738 7.56649 20.7232 7.51993 20.6413L0.222541 7.80801C0.12326 7.63341 0.249361 7.41664 0.450212 7.41664Z"
        fill="black" />
    <path
        d="M25.0859 14.3572L18.358 14.3572C18.2623 14.3572 18.1742 14.305 18.1283 14.221L14.4797 7.55289C14.4337 7.46892 14.3457 7.4167 14.2499 7.4167L7.78505 7.4167C7.58395 7.4167 7.45788 7.19946 7.55765 7.02485L10.925 1.13199C10.9716 1.05039 11.0584 1.00003 11.1524 1.00003L17.7885 1.00003C17.8827 1.00003 17.9696 1.0506 18.0162 1.13248L25.3136 13.9658C25.4129 14.1404 25.2868 14.3572 25.0859 14.3572Z"
        fill="black" />
    <path
        d="M39.2825 12.9112C39.2825 16.3229 37.0773 18.6113 33.9152 18.6113C30.753 18.6113 28.5479 16.3229 28.5479 12.9112C28.5479 9.52019 30.753 7.2318 33.9152 7.2318C37.0773 7.2318 39.2825 9.52019 39.2825 12.9112ZM31.4395 12.9112C31.4395 14.9915 32.3965 16.1981 33.9152 16.1981C35.4338 16.1981 36.37 14.9915 36.37 12.9112C36.37 10.8516 35.4338 9.64501 33.9152 9.64501C32.3965 9.64501 31.4395 10.8516 31.4395 12.9112Z"
        fill="black" />
    <path
        d="M47.5896 7.41903V10.2691C47.2567 10.2275 47.0071 10.2067 46.6534 10.2067C45.1348 10.2067 43.9698 11.1429 43.9698 12.8279V18.3825H41.0573V7.43984H43.9698V8.9793C44.4482 8.02233 45.53 7.37743 46.8823 7.37743C47.1735 7.37743 47.3815 7.39823 47.5896 7.41903Z"
        fill="black" />
    <path
        d="M52.9162 18.6113C49.8997 18.6113 48.1522 16.0317 48.1522 12.9112C48.1522 9.81144 49.8997 7.2318 52.9162 7.2318C54.2893 7.2318 55.3295 7.77269 55.9744 8.56323V3.44556H58.8869V18.3825H55.9744V17.2591C55.3295 18.0704 54.2893 18.6113 52.9162 18.6113ZM56.0368 12.6199C56.0368 10.7476 54.9966 9.72822 53.6028 9.72822C51.9593 9.72822 51.0855 11.0388 51.0855 12.9112C51.0855 14.8043 51.9593 16.1149 53.6028 16.1149C54.9966 16.1149 56.0368 15.0747 56.0368 13.2232V12.6199Z"
        fill="black" />
    <path
        d="M64.2044 3.44556V11.6838L68.0323 7.43984H71.5273L67.5122 11.6005L71.8393 18.3825H68.5108L65.4942 13.7017L64.2044 15.0331V18.3825H61.2919V3.44556H64.2044Z"
        fill="black" />
    <path
        d="M72.932 6.15002V3.44556H75.9069V6.15002H72.932ZM75.8861 7.43984V18.3825H72.9736V7.43984H75.8861Z"
        fill="black" />
    <path
        d="M78.5673 15.5324V9.87385H77.1111V7.43984H78.5673V4.31931H81.4382V7.43984H83.6642V9.87385H81.4382V14.9291C81.4382 15.8653 81.9583 15.9901 82.8112 15.9901C83.2273 15.9901 83.4353 15.9693 83.8098 15.9277V18.3409C83.2897 18.4449 82.6656 18.5073 81.9375 18.5073C79.7323 18.5073 78.5673 17.7792 78.5673 15.5324Z"
        fill="black" />
    <path
        d="M85.5536 16.5714C85.5536 16.4167 85.5913 16.2758 85.6667 16.1488C85.7421 16.0218 85.8433 15.9206 85.9703 15.8452C86.0973 15.7698 86.2381 15.7321 86.3929 15.7321C86.5278 15.7321 86.6528 15.7619 86.7679 15.8214C86.883 15.881 86.9777 15.9618 87.0521 16.064C87.1265 16.1662 87.1712 16.2813 87.1861 16.4092H86.7441C86.7292 16.3348 86.688 16.2743 86.6206 16.2277C86.5541 16.1801 86.4782 16.1563 86.3929 16.1563C86.3165 16.1563 86.2466 16.1746 86.1831 16.2113C86.1206 16.248 86.0705 16.2981 86.0328 16.3616C85.9951 16.4241 85.9762 16.4936 85.9762 16.5699C85.9762 16.6463 85.9951 16.7163 86.0328 16.7798C86.0705 16.8423 86.1206 16.8924 86.1831 16.9301C86.2466 16.9678 86.3165 16.9866 86.3929 16.9866C86.4782 16.9866 86.5521 16.9633 86.6146 16.9167C86.6771 16.869 86.7163 16.808 86.7322 16.7336H87.1741C87.1593 16.8616 87.1156 16.9767 87.0432 17.0789C86.9708 17.1811 86.878 17.2619 86.7649 17.3214C86.6518 17.381 86.5278 17.4107 86.3929 17.4107C86.2381 17.4107 86.0973 17.373 85.9703 17.2976C85.8433 17.2222 85.7421 17.121 85.6667 16.994C85.5913 16.8671 85.5536 16.7262 85.5536 16.5714ZM86.381 18.1429C86.1647 18.1429 85.9614 18.1022 85.7709 18.0208C85.5814 17.9395 85.4142 17.8269 85.2694 17.683C85.1256 17.5382 85.0125 17.371 84.9301 17.1815C84.8488 16.9921 84.8086 16.7887 84.8096 16.5714C84.8106 16.3542 84.8518 16.1508 84.9331 15.9613C85.0154 15.7718 85.1285 15.6052 85.2724 15.4613C85.4162 15.3165 85.5829 15.2034 85.7724 15.122C85.9619 15.0407 86.1647 15 86.381 15C86.5983 15 86.8016 15.0407 86.9911 15.122C87.1816 15.2034 87.3483 15.3165 87.4911 15.4613C87.635 15.6052 87.7476 15.7718 87.8289 15.9613C87.9102 16.1508 87.9514 16.3542 87.9524 16.5714C87.9534 16.7887 87.9132 16.9921 87.8319 17.1815C87.7505 17.371 87.6379 17.5382 87.4941 17.683C87.3502 17.8269 87.1831 17.9395 86.9926 18.0208C86.8021 18.1022 86.5983 18.1429 86.381 18.1429ZM86.381 17.6473C86.5308 17.6473 86.6707 17.6195 86.8006 17.564C86.9316 17.5084 87.0462 17.4315 87.1444 17.3333C87.2426 17.2341 87.3195 17.12 87.375 16.9911C87.4306 16.8611 87.4579 16.7217 87.4569 16.5729C87.4569 16.4231 87.4286 16.2832 87.3721 16.1533C87.3165 16.0223 87.2396 15.9077 87.1414 15.8095C87.0432 15.7113 86.9291 15.6344 86.7992 15.5789C86.6692 15.5233 86.5298 15.4955 86.381 15.4955C86.2332 15.4955 86.0943 15.5233 85.9643 15.5789C85.8354 15.6344 85.7213 15.7118 85.6221 15.811C85.5239 15.9092 85.4465 16.0238 85.3899 16.1548C85.3334 16.2847 85.3051 16.4241 85.3051 16.5729C85.3041 16.7207 85.3314 16.8596 85.387 16.9896C85.4435 17.1186 85.5209 17.2326 85.6191 17.3318C85.7183 17.4301 85.8329 17.5074 85.9628 17.564C86.0928 17.6195 86.2322 17.6473 86.381 17.6473Z"
        fill="#1C1C1C" />
</svg>